# xmcd CD database file
#
# Track frame offsets:
#	150
#	42914
#	70916
#	95674
#	145258
#	194767
#	217276
#	255581
#
# Disc length: 4083 seconds
#
# Revision: 0
# Processed by: cddbd v1.4PL0 Copyright (c) Steve Scherf et al.
# Submitted via: CDex 1.51
#
DISCID=820ff108
DTITLE=Fal Frett - live
DYEAR=2001
DGENRE=Jazz
TTITLE0=Untel
TTITLE1=Eddy
TTITLE2=Nicol's Song
TTITLE3=Biguila
TTITLE4=Bazabar
TTITLE5=En Deviran
TTITLE6=Nicol's Song (lg)
TTITLE7=Veronique
EXTD=YEAR: 2001
EXTT0=
EXTT1=
EXTT2=
EXTT3=
EXTT4=
EXTT5=
EXTT6=
EXTT7=
PLAYORDER=
